<?xml version="1.0" encoding="UTF-8"?>
<svg xmlns="http://www.w3.org/2000/svg" xmlns:xlink="http://www.w3.org/1999/xlink" width="854" height="480" viewBox="0 0 854 480">
<defs>
<g>
<g id="glyph-0-0">
<path d="M 9.859375 0 L 6.101562 0 L 6.101562 -0.382812 C 6.214844 -0.390625 6.351562 -0.40625 6.511719 -0.429688 C 6.671875 -0.453125 6.78125 -0.476562 6.839844 -0.503906 C 6.960938 -0.550781 7.046875 -0.617188 7.101562 -0.703125 C 7.152344 -0.789062 7.179688 -0.894531 7.179688 -1.023438 L 7.179688 -6.203125 L 4.796875 -0.113281 L 4.179688 -0.113281 C 4.148438 -0.21875 4.078125 -0.433594 3.960938 -0.75 C 3.847656 -1.070312 3.753906 -1.328125 3.679688 -1.519531 L 1.929688 -6.28125 L 1.929688 -2.066406 C 1.929688 -1.660156 1.957031 -1.355469 2.007812 -1.144531 C 2.0625 -0.933594 2.148438 -0.78125 2.269531 -0.683594 C 2.351562 -0.617188 2.496094 -0.550781 2.707031 -0.488281 C 2.917969 -0.425781 3.066406 -0.390625 3.148438 -0.382812 L 3.148438 0 L 0.171875 0 L 0.171875 -0.382812 C 0.253906 -0.390625 0.386719 -0.414062 0.570312 -0.445312 C 0.753906 -0.480469 0.902344 -0.539062 1.019531 -0.625 C 1.152344 -0.714844 1.238281 -0.871094 1.285156 -1.085938 C 1.328125 -1.304688 1.351562 -1.609375 1.351562 -2.011719 L 1.351562 -5.445312 C 1.351562 -5.652344 1.328125 -5.824219 1.273438 -5.964844 C 1.222656 -6.101562 1.144531 -6.210938 1.039062 -6.292969 C 0.910156 -6.394531 0.777344 -6.460938 0.640625 -6.488281 C 0.503906 -6.519531 0.363281 -6.539062 0.226562 -6.546875 L 0.226562 -6.929688 L 3.417969 -6.929688 L 5.125 -2.363281 L 6.566406 -6.070312 C 6.613281 -6.207031 6.660156 -6.367188 6.707031 -6.558594 C 6.75 -6.746094 6.777344 -6.871094 6.78125 -6.929688 L 9.847656 -6.929688 L 9.847656 -6.546875 C 9.746094 -6.542969 9.636719 -6.527344 9.523438 -6.507812 C 9.40625 -6.488281 9.296875 -6.464844 9.195312 -6.429688 C 9.066406 -6.386719 8.984375 -6.320312 8.941406 -6.230469 C 8.902344 -6.140625 8.882812 -6.039062 8.882812 -5.929688 L 8.882812 -1.019531 C 8.882812 -0.902344 8.902344 -0.804688 8.941406 -0.726562 C 8.984375 -0.644531 9.066406 -0.578125 9.195312 -0.515625 C 9.257812 -0.488281 9.367188 -0.460938 9.515625 -0.433594 C 9.664062 -0.410156 9.777344 -0.390625 9.859375 -0.382812 Z "/>
</g>
<g id="glyph-0-1">
<path d="M 5.828125 0 L 0.539062 0 L 0.539062 -0.882812 C 0.769531 -1.117188 1.023438 -1.332031 1.296875 -1.527344 C 1.574219 -1.71875 1.851562 -1.890625 2.136719 -2.039062 C 2.4375 -2.199219 2.695312 -2.34375 2.898438 -2.46875 C 3.105469 -2.59375 3.265625 -2.726562 3.382812 -2.859375 C 3.5 -2.988281 3.585938 -3.125 3.636719 -3.277344 C 3.6875 -3.425781 3.710938 -3.59375 3.710938 -3.78125 C 3.710938 -4.191406 3.613281 -4.492188 3.417969 -4.683594 C 3.222656 -4.871094 2.960938 -4.964844 2.636719 -4.964844 C 2.539062 -4.964844 2.441406 -4.957031 2.351562 -4.945312 C 2.261719 -4.929688 2.167969 -4.902344 2.070312 -4.863281 C 2.117188 -4.714844 2.167969 -4.566406 2.210938 -4.410156 C 2.257812 -4.253906 2.28125 -4.078125 2.28125 -3.886719 C 2.28125 -3.65625 2.195312 -3.472656 2.03125 -3.335938 C 1.867188 -3.199219 1.652344 -3.128906 1.398438 -3.128906 C 1.152344 -3.128906 0.957031 -3.210938 0.8125 -3.367188 C 0.667969 -3.527344 0.59375 -3.722656 0.59375 -3.949219 C 0.59375 -4.347656 0.828125 -4.691406 1.289062 -4.980469 C 1.75 -5.269531 2.3125 -5.414062 2.976562 -5.414062 C 3.746094 -5.414062 4.367188 -5.28125 4.839844 -5.019531 C 5.316406 -4.757812 5.550781 -4.332031 5.550781 -3.746094 C 5.550781 -3.441406 5.488281 -3.199219 5.363281 -3.011719 C 5.238281 -2.828125 5.054688 -2.664062 4.808594 -2.523438 C 4.589844 -2.398438 4.351562 -2.292969 4.085938 -2.210938 C 3.820312 -2.128906 3.535156 -2.050781 3.234375 -1.976562 C 2.910156 -1.894531 2.628906 -1.808594 2.390625 -1.71875 C 2.152344 -1.628906 1.9375 -1.519531 1.753906 -1.390625 L 1.753906 -1.335938 L 5.828125 -1.335938 Z "/>
</g>
</g>
</defs>
<g fill="rgb(100%, 100%, 0%)" fill-opacity="1">
<use xlink:href="#glyph-0-0" x="30" y="29.169922"/>
<use xlink:href="#glyph-0-1" x="40" y="29.169922"/>
</g>
</svg>
